<?xml version="1.0" standalone="no"?>
<!DOCTYPE svg PUBLIC "-//W3C//DTD SVG 20010904//EN"
 "http://www.w3.org/TR/2001/REC-SVG-20010904/DTD/svg10.dtd">
<svg version="1.0" xmlns="http://www.w3.org/2000/svg"
 width="894.000000pt" height="894.000000pt" viewBox="0 0 894.000000 894.000000"
 preserveAspectRatio="xMidYMid meet">
<metadata>
Created by potrace 1.14, written by Peter Selinger 2001-2017
</metadata>
<g transform="translate(0.000000,894.000000) scale(0.100000,-0.100000)"
fill="#000000" stroke="none">
<path d="M1367 8843 c-12 -11 -8 -6589 3 -6702 28 -271 132 -496 319 -693 171
-179 137 -162 1529 -780 680 -302 1244 -549 1252 -550 18 -1 2373 997 2475
1049 112 57 184 110 286 212 141 140 235 294 292 476 55 177 52 -40 52 3610
l0 3380 -3101 3 c-1705 1 -3104 -1 -3107 -5z m3210 -536 c92 -141 152 -308
174 -485 11 -87 8 -228 -20 -1044 -36 -999 -37 -1268 -7 -1508 55 -445 176
-864 362 -1258 61 -131 232 -442 242 -442 4 0 59 12 122 26 140 32 215 70 280
141 69 75 94 144 94 258 0 114 -25 183 -95 260 -82 89 -227 145 -331 129 -29
-5 -38 -3 -38 8 0 41 202 1723 216 1796 111 592 443 1126 928 1493 77 58 265
179 278 179 4 0 8 -1262 8 -2805 l0 -2805 -646 -2 -647 -3 -23 -100 c-65 -289
-213 -591 -412 -843 -79 -100 -279 -296 -358 -349 -65 -45 -180 -160 -209
-210 -11 -18 -22 -33 -25 -33 -3 0 -14 15 -25 33 -29 50 -144 165 -209 210
-79 53 -279 249 -358 349 -189 239 -350 562 -408 818 -6 30 -16 72 -21 93
l-10 37 -644 0 -645 0 0 2805 c0 1543 3 2805 6 2805 13 0 177 -104 258 -164
390 -287 680 -674 847 -1130 36 -98 82 -270 104 -386 14 -73 215 -1748 215
-1788 0 -11 -9 -13 -38 -8 -104 16 -249 -40 -331 -129 -70 -77 -95 -146 -95
-260 0 -114 25 -183 94 -258 66 -72 140 -109 282 -141 65 -14 119 -26 122 -26
10 0 202 358 261 487 169 372 280 758 335 1173 36 268 36 545 0 1530 -18 481
-30 927 -27 990 11 235 114 500 256 663 l33 37 30 -37 c17 -21 51 -69 75 -106z"/>
<path d="M2530 5631 l0 -1441 110 0 c96 0 111 2 117 18 23 67 56 141 84 189
50 83 152 188 241 246 43 27 78 56 78 63 0 52 -164 1373 -180 1455 -60 292
-228 646 -409 863 l-41 48 0 -1441z"/>
<path d="M6338 6983 c-186 -246 -320 -539 -378 -822 -16 -82 -180 -1403 -180
-1455 0 -7 35 -36 79 -64 87 -57 189 -161 240 -246 28 -47 61 -120 84 -188 6
-16 21 -18 117 -18 l110 0 0 1440 c0 792 -1 1440 -3 1440 -2 0 -33 -39 -69
-87z"/>
<path d="M4436 4463 c-77 -269 -244 -659 -388 -906 -38 -66 -41 -87 -12 -87
28 0 162 -61 226 -102 35 -23 96 -72 136 -111 l72 -70 73 70 c39 39 100 88
135 111 64 41 198 102 226 102 29 0 26 21 -12 87 -147 252 -332 688 -397 936
-10 37 -21 67 -25 67 -3 0 -19 -44 -34 -97z"/>
<path d="M2530 3215 l0 -585 438 2 437 3 2 70 c4 119 23 265 49 383 14 63 24
115 22 117 -2 2 -51 15 -110 29 -196 47 -315 111 -429 234 -85 91 -135 178
-182 315 -6 15 -21 17 -117 17 l-110 0 0 -585z"/>
<path d="M6183 3783 c-47 -137 -97 -224 -182 -315 -114 -123 -233 -187 -429
-234 -59 -14 -108 -27 -110 -29 -2 -2 8 -54 22 -117 24 -109 44 -267 49 -393
l2 -60 438 -3 437 -2 0 585 0 585 -110 0 c-96 0 -111 -2 -117 -17z"/>
<path d="M3841 3068 c-26 -112 -42 -217 -48 -325 l-6 -113 242 0 c197 0 243 3
247 14 10 26 -17 141 -47 203 -35 74 -110 159 -177 201 -45 29 -156 72 -185
72 -8 0 -19 -21 -26 -52z"/>
<path d="M4989 3096 c-121 -43 -222 -133 -278 -249 -32 -65 -58 -176 -48 -202
6 -13 40 -15 247 -15 l240 0 0 68 c-1 85 -14 190 -41 320 -25 116 -20 114
-120 78z"/>
<path d="M3856 2161 c45 -164 119 -328 217 -479 47 -72 152 -205 186 -236 l21
-19 0 411 0 412 -224 0 -225 0 25 -89z"/>
<path d="M4660 1838 l1 -413 46 50 c165 178 311 443 377 685 l25 90 -225 0
-224 0 0 -412z"/>
</g>
</svg>
